<?xml version="1.0" encoding="UTF-8"?>
<svg version="1.1" xmlns="http://www.w3.org/2000/svg" width="350" height="350">
<path d="M0 0 C0.67634941 -0.00085442 1.35269883 -0.00170885 2.04954368 -0.00258917 C4.32047553 -0.00423895 6.59133384 0.00126922 8.86225891 0.00672913 C10.48829649 0.00701113 12.1143342 0.006853 13.7403717 0.00628662 C18.15948572 0.00599917 22.5785727 0.0118875 26.99768043 0.01886058 C31.61414437 0.02510277 36.2306089 0.0256986 40.84707642 0.02688599 C49.59118482 0.02999674 58.33528076 0.0382067 67.07938367 0.04823548 C77.03331294 0.05940454 86.9872428 0.06490907 96.94117677 0.06993091 C117.41919094 0.08038951 137.89719387 0.09798402 158.37519836 0.12025452 C157.43443472 1.38460587 156.49226299 2.64790958 155.54951477 3.91078186 C155.02499725 4.6143985 154.50047974 5.31801514 153.96006775 6.04295349 C151.66989587 9.04470016 149.22793473 11.8980201 146.75019836 14.74525452 C145.6993928 15.96268145 144.64861228 17.18013 143.59785461 18.39759827 C142.79952209 19.31968079 142.79952209 19.31968079 141.98506165 20.26039124 C134.32190946 29.11357494 126.74630297 38.02112539 119.37519836 47.12025452 C113.9544955 53.81174487 108.43839489 60.40501079 102.81733704 66.92811584 C99.7860054 70.45286404 96.8054905 74.01047435 93.87519836 77.62025452 C90.54497875 81.72174582 87.13878066 85.74586417 83.68769836 89.74525452 C78.54405439 95.70989525 73.5200988 101.76586884 68.53022766 107.85951233 C65.35439402 111.73340398 62.14926404 115.57624149 58.88667297 119.37733459 C47.78285485 130.8079524 47.78285485 130.8079524 43.37519836 145.12025452 C44.29308184 150.01563307 45.56883737 153.83930867 49.43769836 157.12025452 C53.75908328 160.06247403 55.88218671 160.26080031 61.11982727 160.32557678 C61.81262283 160.33547638 62.5054184 160.34537598 63.21920776 160.35557556 C65.51335715 160.38720949 67.80752726 160.41195538 70.10176086 160.43666077 C71.69074548 160.45722867 73.27972461 160.4782251 74.86869812 160.49963379 C79.05423031 160.55487142 83.23981202 160.60427321 87.4254303 160.65248108 C91.69518957 160.70268377 95.96487679 160.75837626 100.23457336 160.81361389 C108.61472081 160.92121615 116.99492847 161.0226565 125.37519836 161.12025452 C123.48470737 168.65213501 121.09880582 175.78685606 118.16426086 182.97181702 C117.55677254 184.48116066 117.55677254 184.48116066 116.93701172 186.02099609 C115.63027133 189.26467912 114.31529661 192.50495226 113.00019836 195.74525452 C111.64417819 199.10472252 110.29024259 202.46502544 108.93649292 205.82540894 C108.0350308 208.06281815 107.13288235 210.29995097 106.2300415 212.5368042 C103.52256363 219.2494033 100.84182089 225.97161873 98.19941711 232.71009827 C97.89225769 233.49336487 97.58509827 234.27663147 97.26863098 235.08363342 C96.13150169 237.98678365 94.99607953 240.89058166 93.86500549 243.7960968 C93.11649055 245.71873703 92.36515111 247.64025303 91.61347961 249.56166077 C90.99533386 251.15022888 90.99533386 251.15022888 90.36470032 252.77088928 C89.37519836 255.12025452 89.37519836 255.12025452 88.37519836 256.12025452 C85.52098411 256.23148498 82.69074579 256.27765458 79.83564758 256.28138733 C78.93966354 256.28635223 78.0436795 256.29131714 77.12054443 256.2964325 C74.14031723 256.31110064 71.16014332 256.31786549 68.17988586 256.32337952 C66.11300148 256.32912923 64.04611712 256.33488699 61.97923279 256.34065247 C57.63628388 256.35117711 53.29335355 256.3570095 48.95039368 256.36048889 C43.39195087 256.36596229 37.83375443 256.38995948 32.27538872 256.41846085 C28.00136101 256.43711367 23.72739215 256.44229434 19.45332718 256.44382477 C17.40485926 256.44684824 15.35639231 256.45486644 13.30796432 256.46800995 C10.4354935 256.4851178 7.56361783 256.48317802 4.69111633 256.47669983 C3.84823563 256.48591461 3.00535492 256.49512939 2.13693237 256.50462341 C-4.09378456 256.46073814 -8.99698844 255.45608847 -13.80448914 251.18275452 C-14.36394226 250.50212952 -14.92339539 249.82150452 -15.49980164 249.12025452 C-16.07472351 248.43962952 -16.64964539 247.75900452 -17.24198914 247.05775452 C-20.29442937 242.7808891 -19.77303387 238.18233648 -19.77197266 233.15756226 C-19.77564934 232.22959357 -19.77932603 231.30162488 -19.78311414 230.34553593 C-19.79416503 227.22266641 -19.79799721 224.09983014 -19.80180359 220.97694397 C-19.80806718 218.74320367 -19.81471388 216.50946442 -19.82171631 214.27572632 C-19.83913571 208.1970519 -19.84968066 202.11838536 -19.85792184 196.03969216 C-19.86307005 192.24300452 -19.86914586 188.44631932 -19.87543297 184.64963341 C-19.89230368 174.13503634 -19.90693839 163.62044042 -19.91418171 153.1058321 C-19.91609156 150.37764802 -19.9180119 147.64946395 -19.91996765 144.92127991 C-19.92045139 144.24321473 -19.92093513 143.56514955 -19.92143353 142.86653694 C-19.92973158 131.88545154 -19.95506481 120.90447515 -19.98754833 109.92343733 C-20.02063689 98.6457805 -20.03829946 87.36817698 -20.04182595 76.09046525 C-20.04417799 69.75992728 -20.05315864 63.42956161 -20.07828712 57.0990696 C-20.1015488 51.1425506 -20.10580855 45.18631756 -20.09552574 39.22976494 C-20.09502981 37.04487279 -20.10136701 34.85996665 -20.11508179 32.67511749 C-20.13277562 29.68902393 -20.12570642 26.70395938 -20.11254883 23.71786499 C-20.12351807 22.85607787 -20.13448732 21.99429075 -20.14578897 21.10638887 C-20.07810329 14.73061551 -18.62717047 9.28687189 -14.14208776 4.55642682 C-9.46447605 0.48910051 -6.02982829 -0.00457846 0 0 Z " fill="#39B9B9" transform="translate(61.62480163574219,49.87974548339844)"/>
<path d="M0 0 C1.65 0.33 3.3 0.66 5 1 C4.43396227 7.22375755 2.4747273 12.47967982 0.16015625 18.2578125 C-0.23336029 19.25750061 -0.62687683 20.25718872 -1.03231812 21.28717041 C-2.32662971 24.56943281 -3.63187371 27.84722376 -4.9375 31.125 C-5.84650567 33.42246795 -6.75494572 35.72015975 -7.6628418 38.01806641 C-9.98561057 43.89019411 -12.31830904 49.75831344 -14.65539551 55.62475586 C-15.92738539 58.81772184 -17.19782641 62.01129919 -18.46777344 65.20507812 C-27.05644729 86.79613317 -35.73153216 108.35199798 -44.49536133 129.87255859 C-44.94271637 130.97232025 -44.94271637 130.97232025 -45.39910889 132.09429932 C-45.95162863 133.45234196 -46.50492011 134.81007099 -47.05914307 136.16741943 C-48.1144296 138.76201188 -49.11386082 141.34158246 -50 144 C-48.5884539 143.99000725 -48.5884539 143.99000725 -47.14839172 143.97981262 C-38.27615158 143.91897368 -29.4039538 143.87401401 -20.53155231 143.84456348 C-15.9702465 143.82891361 -11.40910922 143.80768774 -6.84790039 143.77368164 C-2.44532301 143.74106397 1.95709237 143.72314188 6.35978127 143.71536827 C8.03869998 143.70982908 9.71760991 143.69901235 11.39645958 143.68280983 C13.74977085 143.66100323 16.10241435 143.65803438 18.45581055 143.65942383 C19.1484903 143.648638 19.84117004 143.63785217 20.55484009 143.6267395 C24.87133947 143.65428068 27.57738078 144.34291915 31 147 C32.5625 149.75 32.5625 149.75 33 153 C30.40952546 158.26248944 27.13259182 162.45174737 23.25 166.8125 C22.17452526 168.04317437 21.10030947 169.27495003 20.02734375 170.5078125 C19.50769043 171.10368164 18.98803711 171.69955078 18.45263672 172.31347656 C15.84799716 175.33748497 13.38162279 178.46793286 10.90625 181.59765625 C8.89905925 184.12721017 6.86034669 186.62825938 4.8125 189.125 C1.02830684 193.73923208 -2.73891223 198.36691757 -6.5 203 C-11.65215205 209.345282 -16.81948011 215.67784703 -22 222 C-23.50014281 223.83321648 -25.00014082 225.66655146 -26.5 227.5 C-27.24894531 228.41523438 -27.99789062 229.33046875 -28.76953125 230.2734375 C-30.20499935 232.02817784 -31.63993796 233.78335155 -33.07421875 235.5390625 C-38.31567112 241.95281753 -43.57891142 248.34837353 -48.84643555 254.74072266 C-52.07114546 258.65491932 -55.29116366 262.57276747 -58.5 266.5 C-66.98612055 276.87893554 -75.47995642 287.24879002 -84.16308594 297.46386719 C-88.5118155 302.58627732 -92.75979031 307.78775668 -97 313 C-98.41624911 314.72950867 -99.83292473 316.45866817 -101.25 318.1875 C-103.92353652 321.45306745 -106.58925791 324.72474851 -109.24609375 328.00390625 C-110.09929199 329.0563855 -110.09929199 329.0563855 -110.96972656 330.13012695 C-112.08321811 331.50426668 -113.19589926 332.87906364 -114.30761719 334.25463867 C-117.80177208 338.56614922 -121.37176036 342.8005982 -125 347 C-126.32 346.67 -127.64 346.34 -129 346 C-128.44668408 340.87720652 -127.23902047 336.48340749 -125.26171875 331.71484375 C-124.98542633 331.03050262 -124.70913391 330.3461615 -124.42446899 329.64108276 C-123.51928544 327.40358325 -122.60334038 325.17065601 -121.6875 322.9375 C-121.04434044 321.35214131 -120.40201871 319.7664425 -119.76049805 318.18041992 C-118.45813076 314.96290367 -117.15209779 311.74691787 -115.84277344 308.53222656 C-113.30709467 302.30253154 -110.80794759 296.05841562 -108.3125 289.8125 C-107.84561768 288.6462207 -107.37873535 287.47994141 -106.89770508 286.27832031 C-101.23147057 272.11537552 -95.63025988 257.92652581 -90.0246582 243.73950195 C-84.38768317 229.47776458 -78.70554691 215.23443973 -73 201 C-73.97861496 200.99413376 -74.95722992 200.98826752 -75.96549988 200.98222351 C-85.19112585 200.92499346 -94.41651617 200.85223035 -103.64190197 200.76428509 C-108.38470445 200.71957066 -113.12742082 200.68031688 -117.87036133 200.65356445 C-122.4481647 200.62754219 -127.02563688 200.5871474 -131.60323524 200.53681374 C-133.34907217 200.52013773 -135.0949664 200.50862802 -136.84087181 200.50238609 C-139.28774045 200.49275289 -141.73376041 200.46470381 -144.18041992 200.43237305 C-144.90115189 200.43380814 -145.62188385 200.43524323 -146.36445618 200.4367218 C-150.73907482 200.35505071 -153.52909118 199.69785482 -157 197 C-159 194 -159 194 -158.9609375 191.22265625 C-157.73536155 187.11249299 -155.46658893 184.52859002 -152.625 181.4375 C-151.52681407 180.20099106 -150.42916977 178.96400089 -149.33203125 177.7265625 C-148.49599365 176.79505371 -148.49599365 176.79505371 -147.64306641 175.84472656 C-145.14824379 173.04370432 -142.72852351 170.18147405 -140.3125 167.3125 C-139.8582666 166.7755249 -139.4040332 166.2385498 -138.93603516 165.68530273 C-135.3457586 161.43406831 -131.82516302 157.12805743 -128.3125 152.8125 C-125.2756723 149.1190609 -122.18039045 145.47701514 -119.08374023 141.83374023 C-116.2045468 138.44045891 -113.36795763 135.01732214 -110.5625 131.5625 C-106.60491812 126.69870975 -102.53457554 121.94118769 -98.44165039 117.19165039 C-95.41054711 113.66701081 -92.43014684 110.10960118 -89.5 106.5 C-85.5662143 101.65403211 -81.51552241 96.91901472 -77.44140625 92.19140625 C-74.41041716 88.66682097 -71.43007419 85.10951168 -68.5 81.5 C-64.5662143 76.65403211 -60.51552241 71.91901472 -56.44140625 67.19140625 C-53.41041716 63.66682097 -50.43007419 60.10951168 -47.5 56.5 C-43.11287098 51.09923828 -38.58776588 45.825323 -34.05078125 40.55078125 C-27.0442295 32.40430115 -20.13050521 24.18938662 -13.34765625 15.85546875 C-8.95996366 10.51869123 -4.47614988 5.26261359 0 0 Z " fill="#F3BD1E" transform="translate(275,1)"/>
<path d="M0 0 C1.11448013 -0.0071553 2.22896027 -0.01431061 3.37721252 -0.02168274 C5.73331908 -0.02946459 8.08949763 -0.02443752 10.44555664 -0.00756836 C14.05037637 0.01163336 17.65133033 -0.02769839 21.25585938 -0.07226562 C23.54557521 -0.07255602 25.83529459 -0.06941504 28.125 -0.0625 C29.74081215 -0.08542366 29.74081215 -0.08542366 31.38926697 -0.10881042 C36.30479619 -0.03230346 38.82058349 0.08434022 42.81079102 3.11962891 C45.53551835 7.32596973 45.30962869 11.87633909 45.22265625 16.734375 C45.22269653 17.69065292 45.22273682 18.64693085 45.22277832 19.63218689 C45.2174335 21.64686685 45.19989533 23.66154702 45.17089844 25.67602539 C45.12899266 28.75536939 45.12983755 31.83252783 45.13671875 34.91210938 C45.12622712 36.87371307 45.11328917 38.83530554 45.09765625 40.796875 C45.09745483 41.71469254 45.09725342 42.63251007 45.0970459 43.57814026 C45.0084516 48.3729701 44.88836942 51.89913236 41.62890625 55.69921875 C38.65423319 57.51442147 36.40151178 57.95720366 32.93969727 57.98974609 C32.01516251 58.0025058 31.09062775 58.0152655 30.13807678 58.02841187 C28.65047096 58.03175034 28.65047096 58.03175034 27.1328125 58.03515625 C26.10711655 58.04181305 25.08142059 58.04846985 24.02464294 58.05532837 C21.85686027 58.06544688 19.6890465 58.07014564 17.52124023 58.06982422 C14.20699739 58.07419817 10.89408548 58.11052937 7.58007812 58.1484375 C5.4726608 58.15430565 3.36523716 58.15827505 1.2578125 58.16015625 C-0.22675697 58.1817128 -0.22675697 58.1817128 -1.74131775 58.20370483 C-6.13902145 58.17453528 -8.65963534 58.1358935 -12.47290039 55.79541016 C-15.15683163 52.83152158 -15.49997793 51.22777512 -15.5480957 47.32885742 C-15.56093094 46.42419235 -15.57376617 45.51952728 -15.58699036 44.58744812 C-15.59437729 43.60726212 -15.60176422 42.62707611 -15.609375 41.6171875 C-15.61744675 40.6108577 -15.62551849 39.60452789 -15.63383484 38.56770325 C-15.64768092 36.43504564 -15.65840072 34.30236581 -15.66625977 32.16967773 C-15.68346968 28.91021655 -15.72735128 25.65177028 -15.77148438 22.39257812 C-15.78161142 20.32162205 -15.79012749 18.25065734 -15.796875 16.1796875 C-15.81438309 15.20557419 -15.83189117 14.23146088 -15.84992981 13.22782898 C-15.83713127 9.22880401 -15.62344364 6.29586941 -14.05517578 2.58789062 C-9.68513471 -0.48711735 -5.21586507 -0.03375374 0 0 Z " fill="#F8F9EA" transform="translate(88.37109375,81.30078125)"/>
<path d="M0 0 C1.41705986 -0.02409439 1.41705986 -0.02409439 2.86274719 -0.04867554 C7.18518385 -0.09310153 11.5074666 -0.13418924 15.83007812 -0.15722656 C18.11045535 -0.17378987 20.39078058 -0.20108456 22.67089844 -0.23925781 C25.95689863 -0.29399672 29.24168158 -0.31589647 32.52807617 -0.33056641 C33.54593704 -0.35323578 34.56379791 -0.37590515 35.61250305 -0.39926147 C42.72501548 -0.37801676 42.72501548 -0.37801676 46.56591797 2.66308594 C47.18635986 3.49791504 47.80680176 4.33274414 48.44604492 5.19287109 C48.94104492 5.68787109 48.94104492 5.68787109 49.44604492 6.19287109 C49.57221391 9.29796637 49.63476721 12.37954667 49.64916992 15.48583984 C49.65487 16.42462479 49.66057007 17.36340973 49.66644287 18.3306427 C49.67591135 20.32385119 49.68243415 22.31707546 49.6862793 24.31030273 C49.695949 27.35021695 49.72693997 30.38944492 49.75854492 33.42919922 C49.76507833 35.36474207 49.77032747 37.30028978 49.77416992 39.23583984 C49.78651672 40.14230759 49.79886353 41.04877533 49.81158447 41.98271179 C49.79357711 47.12620184 49.38790712 50.77620012 46.44604492 55.19287109 C43.23294625 57.33493688 42.37008424 57.44751928 38.67089844 57.4675293 C37.70301895 57.47706131 36.73513947 57.48659332 35.7379303 57.49641418 C34.69414719 57.49550278 33.65036407 57.49459137 32.57495117 57.49365234 C30.96413918 57.50008003 30.96413918 57.50008003 29.32078552 57.50663757 C27.04866237 57.5123831 24.77652082 57.51287951 22.50439453 57.50854492 C19.02564135 57.50538662 15.54773969 57.52883639 12.0690918 57.55419922 C9.86271266 57.55647232 7.65633124 57.55717566 5.44995117 57.55615234 C4.40819229 57.56536209 3.36643341 57.57457184 2.29310608 57.58406067 C1.32207443 57.57783188 0.35104279 57.57160309 -0.64941406 57.56518555 C-1.92823708 57.56612968 -1.92823708 57.56612968 -3.2328949 57.5670929 C-6.10070113 57.10471987 -7.45794805 56.17937774 -9.55395508 54.19287109 C-10.48026005 51.41395619 -10.69456465 49.67572368 -10.73095703 46.80078125 C-10.74379227 45.91621246 -10.7566275 45.03164368 -10.76985168 44.12026978 C-10.78093208 42.69054337 -10.78093208 42.69054337 -10.79223633 41.23193359 C-10.80030807 40.24921478 -10.80837982 39.26649597 -10.81669617 38.2539978 C-10.83052663 36.17439534 -10.84125343 34.09477028 -10.84912109 32.01513672 C-10.86635156 28.83696545 -10.91024931 25.65982978 -10.9543457 22.48193359 C-10.96447136 20.46110791 -10.97298786 18.44027338 -10.97973633 16.41943359 C-10.99724442 15.47033112 -11.0147525 14.52122864 -11.03279114 13.54336548 C-11.01863179 9.23166254 -10.96203585 6.85311425 -8.65234375 3.11621094 C-5.63800526 0.35333035 -3.98910457 0.06157224 0 0 Z " fill="#F9F9EA" transform="translate(83.553955078125,216.80712890625)"/>
<path d="M0 0 C1.63986122 -0.00361794 1.63986122 -0.00361794 3.31285095 -0.00730896 C5.62014398 -0.00633088 7.92746058 0.00705321 10.23461914 0.03198242 C13.76854996 0.0663208 17.29998453 0.05263016 20.83398438 0.03320312 C23.07683357 0.04010069 25.31967631 0.04977225 27.5625 0.0625 C28.61985855 0.05754013 29.6772171 0.05258026 30.76661682 0.04747009 C38.10071434 0.16543228 38.10071434 0.16543228 41.41186523 2.66430664 C41.84184814 3.31262451 42.27183105 3.96094238 42.71484375 4.62890625 C41.06294806 8.54625889 38.41040146 11.51952232 35.65234375 14.69140625 C34.6594992 15.84969754 33.66732229 17.00856141 32.67578125 18.16796875 C31.93086426 19.03663574 31.93086426 19.03663574 31.17089844 19.92285156 C27.60909018 24.09621107 24.12939568 28.3340956 20.71484375 32.62890625 C20.24949219 33.21285156 19.78414062 33.79679687 19.3046875 34.3984375 C16.62301619 38.04128132 15.79116159 41.12615373 15.71484375 45.62890625 C16.6548471 49.46462463 17.94880313 53.09682501 19.71484375 56.62890625 C15.37327323 56.72795928 11.03230521 56.80045926 6.68994141 56.84863281 C5.21358785 56.86871926 3.73731356 56.89599426 2.26123047 56.93066406 C0.13619413 56.97931809 -1.98778859 57.00190298 -4.11328125 57.01953125 C-5.39106445 57.04047852 -6.66884766 57.06142578 -7.98535156 57.08300781 C-11.8433719 56.55208758 -12.94907216 55.66878337 -15.28515625 52.62890625 C-16.44146477 50.31628922 -16.43555863 48.92578523 -16.47802734 46.3503418 C-16.49409027 45.46569748 -16.5101532 44.58105316 -16.52670288 43.66960144 C-16.5711534 39.62194573 -16.61221766 35.57445403 -16.63525391 31.52661133 C-16.65181466 29.39173482 -16.67910613 27.25691379 -16.71728516 25.12231445 C-16.77204958 22.04479195 -16.79392738 18.96856914 -16.80859375 15.890625 C-16.83126312 14.93838547 -16.8539325 13.98614594 -16.87728882 13.00505066 C-16.86369826 8.74148109 -16.65244083 6.25238226 -14.45776367 2.52685547 C-9.70901937 -0.31398626 -5.4387515 -0.06832726 0 0 Z " fill="#F9F8E9" transform="translate(89.28515625,149.37109375)"/>
<path d="M0 0 C0.33 0 0.66 0 1 0 C1.1017192 7.54382769 1.17159975 15.0874774 1.21972656 22.63183594 C1.23979728 25.1963563 1.26706001 27.76083115 1.30175781 30.32519531 C1.35047355 34.01899471 1.37301513 37.71218709 1.390625 41.40625 C1.41127014 42.5461438 1.43191528 43.6860376 1.45318604 44.86047363 C1.45528498 52.36712424 0.69771359 58.25457398 -4.81640625 63.83984375 C-5.68072266 64.38318359 -5.68072266 64.38318359 -6.5625 64.9375 C-7.14128906 65.31777344 -7.72007812 65.69804687 -8.31640625 66.08984375 C-11.33498804 67.72169887 -13.83447782 68.12362019 -17.19604492 68.11352539 C-18.03668991 68.11344986 -18.8773349 68.11337433 -19.74345398 68.11329651 C-20.64666885 68.10813522 -21.54988373 68.10297394 -22.48046875 68.09765625 C-23.40845779 68.0962413 -24.33644684 68.09482635 -25.29255676 68.09336853 C-28.25757058 68.08776937 -31.22250899 68.07521704 -34.1875 68.0625 C-36.19726453 68.05748489 -38.20703025 68.052922 -40.21679688 68.04882812 C-45.14456032 68.03780021 -50.07226737 68.02053617 -55 68 C-52.66711761 64.00275392 -50.03516833 60.5427265 -47 57.0625 C-43.08134512 52.50747121 -39.29888681 47.87932304 -35.625 43.125 C-31.15199012 37.35366121 -26.44387679 31.8259831 -21.63427734 26.33349609 C-17.26778742 21.33929872 -13.11022343 16.20684108 -9 11 C-7.35954477 8.95400959 -5.71365028 6.91236911 -4.0625 4.875 C-3.31097656 3.94429687 -2.55945313 3.01359375 -1.78515625 2.0546875 C-1.19605469 1.37664062 -0.60695312 0.69859375 0 0 Z " fill="#38B9B9" transform="translate(254,238)"/>
<path d="M0 0 C1.18797432 0.01061211 1.18797432 0.01061211 2.39994812 0.0214386 C4.91735264 0.04931881 7.43249231 0.11203925 9.94921875 0.17578125 C11.66077505 0.20087264 13.3723664 0.22368434 15.08398438 0.24414062 C19.26909529 0.29912378 23.45252371 0.38534707 27.63671875 0.48828125 C25.64054215 7.58835248 23.20823335 14.40481927 20.44140625 21.23828125 C19.85203781 22.70817505 19.85203781 22.70817505 19.25076294 24.20776367 C18.00846964 27.30291719 16.76009267 30.39557601 15.51171875 33.48828125 C14.66628697 35.59359757 13.82123138 37.69906499 12.9765625 39.8046875 C11.43819715 43.63368502 9.89970859 47.46262698 8.35498047 51.2890625 C8.04648163 52.05387939 7.73798279 52.81869629 7.4201355 53.60668945 C6.87282819 54.92119919 6.27350461 56.21470954 5.63671875 57.48828125 C3.40924549 57.623919 1.17937552 57.72055978 -1.05078125 57.80078125 C-2.29214844 57.85878906 -3.53351563 57.91679687 -4.8125 57.9765625 C-8.36328125 57.48828125 -8.36328125 57.48828125 -11.04370117 55.61987305 C-14.37983468 51.11586457 -14.08348534 47.3670232 -14.02734375 41.89453125 C-14.03212738 40.87025024 -14.03691101 39.84596924 -14.0418396 38.79064941 C-14.04523639 36.62880921 -14.03604953 34.4669175 -14.01513672 32.30517578 C-13.98836932 28.99915865 -14.01489342 25.69653672 -14.046875 22.390625 C-14.04357086 20.28775293 -14.03716456 18.18488298 -14.02734375 16.08203125 C-14.0374649 15.09545532 -14.04758606 14.10887939 -14.05801392 13.09240723 C-13.98214284 8.64214424 -13.7959517 6.15944631 -11.34448242 2.35668945 C-7.51546703 -0.04306935 -4.37667292 -0.14829166 0 0 Z " fill="#F9F8E9" transform="translate(157.36328125,216.51171875)"/>
<path d="M0 0 C1.32091644 0.00045319 1.32091644 0.00045319 2.66851807 0.00091553 C4.08121979 0.03188324 4.08121979 0.03188324 5.52246094 0.06347656 C6.49342712 0.06913635 7.46439331 0.07479614 8.46478271 0.08062744 C11.56263763 0.10299845 14.65933127 0.15319683 17.75683594 0.20410156 C19.85838172 0.2241656 21.95994565 0.24241653 24.06152344 0.25878906 C29.21040763 0.30286576 34.35842497 0.37189898 39.50683594 0.45410156 C37.85772764 3.90207157 35.9010183 6.57464862 33.44433594 9.51660156 C32.63480469 10.49113281 31.82527344 11.46566406 30.99121094 12.46972656 C30.17136719 13.45457031 29.35152344 14.43941406 28.50683594 15.45410156 C27.06816186 17.22398118 25.63064604 18.99480297 24.19433594 20.76660156 C20.19427665 25.66021685 16.08949744 30.45653006 11.96435547 35.24438477 C8.04282399 39.80484568 4.21358302 44.43018288 0.42089844 49.09863281 C-1.8593591 51.90474566 -4.17107819 54.68257971 -6.49316406 57.45410156 C-9.00891793 54.93834769 -8.75385685 54.08991366 -8.78369141 50.60888672 C-8.79645111 49.6008902 -8.80921082 48.59289368 -8.82235718 47.55435181 C-8.82458282 46.46165985 -8.82680847 45.3689679 -8.82910156 44.24316406 C-8.83908676 42.56364151 -8.83908676 42.56364151 -8.84927368 40.85018921 C-8.85941387 38.47794237 -8.86409028 36.10566693 -8.86376953 33.73339844 C-8.86813802 30.10075882 -8.90443211 26.46933815 -8.94238281 22.83691406 C-8.94825153 20.5348349 -8.95222055 18.23274994 -8.95410156 15.93066406 C-8.9684726 14.84202057 -8.98284363 13.75337708 -8.99765015 12.63174438 C-8.99149689 11.61744354 -8.98534363 10.6031427 -8.97900391 9.55810547 C-8.98185394 8.6670108 -8.98470398 7.77591614 -8.98764038 6.8578186 C-7.97205249 1.92090693 -4.84064532 -0.0556396 0 0 Z " fill="#F9F8E9" transform="translate(152.4931640625,81.5458984375)"/>
</svg>
